/* XPM */
static char *eb550c7b6f6b46ae851870c940ddf202AJIq4lbAp7Fsyxuq[] = {
/* columns rows colors chars-per-pixel */
"16 16 2 1 ",
"  c #808080",
". c #C0C0C0",
/* pixels */
"                ",
" ...............",
" ...............",
" ...............",
" ...............",
" ...............",
" ...............",
" ...............",
" ...............",
" ...............",
" ...............",
" ...............",
" ...............",
" ...............",
" ...............",
" ..............."
};
